HIERARCHY
ROOT Character1_Hips
{
	OFFSET 0.000000 86.858185 1.182688
	CHANNELS 6 Xposition Yposition Zposition Xrotation Yrotation Zrotation
	JOINT Character1_LeftUpLeg
	{
		OFFSET 7.276832 -6.057800 0.207883
		CHANNELS 6 Xposition Yposition Zposition Xrotation Yrotation Zrotation
		JOINT Character1_LeftLeg
		{
			OFFSET -1.823140 -35.110466 -1.568847
			CHANNELS 6 Xposition Yposition Zposition Xrotation Yrotation Zrotation
			JOINT Character1_LeftFoot
			{
				OFFSET -1.031196 -37.817070 -1.726818
				CHANNELS 6 Xposition Yposition Zposition Xrotation Yrotation Zrotation
				JOINT Character1_LeftToeBase
				{
					OFFSET 0.202457 -5.287532 8.122427
					CHANNELS 6 Xposition Yposition Zposition Xrotation Yrotation Zrotation
					End Site
					{
						OFFSET 0.009223 0.000047 9.693953
					}
				}
			}
		}
	}
	JOINT Character1_RightUpLeg
	{
		OFFSET -7.276832 -6.057770 0.207879
		CHANNELS 6 Xposition Yposition Zposition Xrotation Yrotation Zrotation
		JOINT Character1_RightLeg
		{
			OFFSET 1.823196 -35.109627 -1.587624
			CHANNELS 6 Xposition Yposition Zposition Xrotation Yrotation Zrotation
			JOINT Character1_RightFoot
			{
				OFFSET 1.031267 -37.817833 -1.710079
				CHANNELS 6 Xposition Yposition Zposition Xrotation Yrotation Zrotation
				JOINT Character1_RightToeBase
				{
					OFFSET -0.202449 -5.287759 8.122276
					CHANNELS 6 Xposition Yposition Zposition Xrotation Yrotation Zrotation
					End Site
					{
						OFFSET 0.001154 -0.000006 9.693956
					}
				}
			}
		}
	}
	JOINT Character1_Spine
	{
		OFFSET -0.000001 2.271347 0.818150
		CHANNELS 6 Xposition Yposition Zposition Xrotation Yrotation Zrotation
		JOINT Character1_Spine1
		{
			OFFSET -0.000001 9.085945 0.955446
			CHANNELS 6 Xposition Yposition Zposition Xrotation Yrotation Zrotation
			JOINT Character1_Spine2
			{
				OFFSET -0.000002 8.765564 -0.142866
				CHANNELS 6 Xposition Yposition Zposition Xrotation Yrotation Zrotation
				JOINT Character1_LeftShoulder
				{
					OFFSET 4.211487 11.612236 -3.873799
					CHANNELS 6 Xposition Yposition Zposition Xrotation Yrotation Zrotation
					JOINT Character1_LeftArm
					{
						OFFSET 5.543700 0.000031 -0.000005
						CHANNELS 6 Xposition Yposition Zposition Xrotation Yrotation Zrotation
						JOINT Character1_LeftForeArm
						{
							OFFSET 23.377409 -0.123474 0.033367
							CHANNELS 6 Xposition Yposition Zposition Xrotation Yrotation Zrotation
							JOINT Character1_LeftHand
							{
								OFFSET 16.247719 -0.118858 0.035829
								CHANNELS 6 Xposition Yposition Zposition Xrotation Yrotation Zrotation
								JOINT Character1_LeftHandThumb1
								{
									OFFSET 2.510399 -0.904045 2.091601
									CHANNELS 6 Xposition Yposition Zposition Xrotation Yrotation Zrotation
									JOINT Character1_LeftHandThumb2
									{
										OFFSET 2.570465 -1.130470 1.584520
										CHANNELS 6 Xposition Yposition Zposition Xrotation Yrotation Zrotation
										JOINT Character1_LeftHandThumb3
										{
											OFFSET 1.420841 -0.605858 0.842600
											CHANNELS 6 Xposition Yposition Zposition Xrotation Yrotation Zrotation
											JOINT Character1_LeftHandThumb4
											{
												OFFSET 2.153469 -0.757797 1.312965
												CHANNELS 6 Xposition Yposition Zposition Xrotation Yrotation Zrotation
												End Site
												{
													OFFSET 2.158772 -0.733734 1.317914
												}
											}
										}
									}
								}
								JOINT Character1_LeftHandIndex1
								{
									OFFSET 8.043888 0.989311 2.480770
									CHANNELS 6 Xposition Yposition Zposition Xrotation Yrotation Zrotation
									JOINT Character1_LeftHandIndex2
									{
										OFFSET 2.427021 0.011856 0.268371
										CHANNELS 6 Xposition Yposition Zposition Xrotation Yrotation Zrotation
										JOINT Character1_LeftHandIndex3
										{
											OFFSET 1.609932 0.007866 0.037315
											CHANNELS 6 Xposition Yposition Zposition Xrotation Yrotation Zrotation
											JOINT Character1_LeftHandIndex4
											{
												OFFSET 2.130016 0.049431 0.114431
												CHANNELS 6 Xposition Yposition Zposition Xrotation Yrotation Zrotation
												End Site
												{
													OFFSET 2.119099 0.211617 -0.131005
												}
											}
										}
									}
								}
								JOINT Character1_LeftHandMiddle1
								{
									OFFSET 8.038177 1.007423 0.439338
									CHANNELS 6 Xposition Yposition Zposition Xrotation Yrotation Zrotation
									JOINT Character1_LeftHandMiddle2
									{
										OFFSET 2.527046 -0.234444 -0.080977
										CHANNELS 6 Xposition Yposition Zposition Xrotation Yrotation Zrotation
										JOINT Character1_LeftHandMiddle3
										{
											OFFSET 1.931313 -0.179352 -0.117768
											CHANNELS 6 Xposition Yposition Zposition Xrotation Yrotation Zrotation
											JOINT Character1_LeftHandMiddle4
											{
												OFFSET 2.196999 0.041229 -0.161456
												CHANNELS 6 Xposition Yposition Zposition Xrotation Yrotation Zrotation
												End Site
												{
													OFFSET 2.197571 -0.071640 -0.141814
												}
											}
										}
									}
								}
								JOINT Character1_LeftHandRing1
								{
									OFFSET 7.662090 0.616508 -1.366725
									CHANNELS 6 Xposition Yposition Zposition Xrotation Yrotation Zrotation
									JOINT Character1_LeftHandRing2
									{
										OFFSET 2.249855 -0.592636 -0.461933
										CHANNELS 6 Xposition Yposition Zposition Xrotation Yrotation Zrotation
										JOINT Character1_LeftHandRing3
										{
											OFFSET 1.521790 -0.400856 -0.248318
											CHANNELS 6 Xposition Yposition Zposition Xrotation Yrotation Zrotation
											JOINT Character1_LeftHandRing4
											{
												OFFSET 2.446365 -0.396080 -0.528466
												CHANNELS 6 Xposition Yposition Zposition Xrotation Yrotation Zrotation
												End Site
												{
													OFFSET 2.437840 -0.527443 -0.446790
												}
											}
										}
									}
								}
								JOINT Character1_LeftHandPinky1
								{
									OFFSET 6.585136 -0.139000 -2.766160
									CHANNELS 6 Xposition Yposition Zposition Xrotation Yrotation Zrotation
									JOINT Character1_LeftHandPinky2
									{
										OFFSET 1.631428 -0.600632 -0.502815
										CHANNELS 6 Xposition Yposition Zposition Xrotation Yrotation Zrotation
										JOINT Character1_LeftHandPinky3
										{
											OFFSET 1.227242 -0.468956 -0.457904
											CHANNELS 6 Xposition Yposition Zposition Xrotation Yrotation Zrotation
											JOINT Character1_LeftHandPinky4
											{
												OFFSET 1.696033 -0.584229 -0.687828
												CHANNELS 6 Xposition Yposition Zposition Xrotation Yrotation Zrotation
												End Site
												{
													OFFSET 1.705387 -0.567787 -0.678411
												}
											}
										}
									}
								}
							}
						}
					}
				}
				JOINT Character1_RightShoulder
				{
					OFFSET -4.211487 11.612236 -3.873799
					CHANNELS 6 Xposition Yposition Zposition Xrotation Yrotation Zrotation
					JOINT Character1_RightArm
					{
						OFFSET -5.543744 0.000023 -0.000004
						CHANNELS 6 Xposition Yposition Zposition Xrotation Yrotation Zrotation
						JOINT Character1_RightForeArm
						{
							OFFSET -23.377581 -0.123566 0.033386
							CHANNELS 6 Xposition Yposition Zposition Xrotation Yrotation Zrotation
							JOINT Character1_RightHand
							{
								OFFSET -16.247574 -0.118851 0.036247
								CHANNELS 6 Xposition Yposition Zposition Xrotation Yrotation Zrotation
								JOINT Character1_RightHandThumb1
								{
									OFFSET -2.510384 -0.904091 2.091566
									CHANNELS 6 Xposition Yposition Zposition Xrotation Yrotation Zrotation
									JOINT Character1_RightHandThumb2
									{
										OFFSET -2.579426 -1.121681 1.537416
										CHANNELS 6 Xposition Yposition Zposition Xrotation Yrotation Zrotation
										JOINT Character1_RightHandThumb3
										{
											OFFSET -1.429546 -0.616760 0.819528
											CHANNELS 6 Xposition Yposition Zposition Xrotation Yrotation Zrotation
											JOINT Character1_RightHandThumb4
											{
												OFFSET -2.167622 -0.774658 1.279505
												CHANNELS 6 Xposition Yposition Zposition Xrotation Yrotation Zrotation
												End Site
												{
													OFFSET -2.137974 -0.606712 1.413074
												}
											}
										}
									}
								}
								JOINT Character1_RightHandIndex1
								{
									OFFSET -8.043800 0.988876 2.481294
									CHANNELS 6 Xposition Yposition Zposition Xrotation Yrotation Zrotation
									JOINT Character1_RightHandIndex2
									{
										OFFSET -2.426987 0.011948 0.268470
										CHANNELS 6 Xposition Yposition Zposition Xrotation Yrotation Zrotation
										JOINT Character1_RightHandIndex3
										{
											OFFSET -1.609989 0.007927 0.037374
											CHANNELS 6 Xposition Yposition Zposition Xrotation Yrotation Zrotation
											JOINT Character1_RightHandIndex4
											{
												OFFSET -2.129982 0.049034 0.114512
												CHANNELS 6 Xposition Yposition Zposition Xrotation Yrotation Zrotation
												End Site
												{
													OFFSET -2.123772 0.204735 0.006035
												}
											}
										}
									}
								}
								JOINT Character1_RightHandMiddle1
								{
									OFFSET -8.038174 1.006859 0.439860
									CHANNELS 6 Xposition Yposition Zposition Xrotation Yrotation Zrotation
									JOINT Character1_RightHandMiddle2
									{
										OFFSET -2.526997 -0.234062 -0.080875
										CHANNELS 6 Xposition Yposition Zposition Xrotation Yrotation Zrotation
										JOINT Character1_RightHandMiddle3
										{
											OFFSET -1.931465 -0.179070 -0.117694
											CHANNELS 6 Xposition Yposition Zposition Xrotation Yrotation Zrotation
											JOINT Character1_RightHandMiddle4
											{
												OFFSET -2.196987 0.042816 -0.161370
												CHANNELS 6 Xposition Yposition Zposition Xrotation Yrotation Zrotation
												End Site
												{
													OFFSET -2.184029 -0.187660 -0.222307
												}
											}
										}
									}
								}
								JOINT Character1_RightHandRing1
								{
									OFFSET -7.662136 0.615837 -1.366219
									CHANNELS 6 Xposition Yposition Zposition Xrotation Yrotation Zrotation
									JOINT Character1_RightHandRing2
									{
										OFFSET -2.249901 -0.592049 -0.461829
										CHANNELS 6 Xposition Yposition Zposition Xrotation Yrotation Zrotation
										JOINT Character1_RightHandRing3
										{
											OFFSET -1.521889 -0.400475 -0.248259
											CHANNELS 6 Xposition Yposition Zposition Xrotation Yrotation Zrotation
											JOINT Character1_RightHandRing4
											{
												OFFSET -2.446423 -0.395401 -0.528361
												CHANNELS 6 Xposition Yposition Zposition Xrotation Yrotation Zrotation
												End Site
												{
													OFFSET -2.430859 -0.503899 -0.507441
												}
											}
										}
									}
								}
								JOINT Character1_RightHandPinky1
								{
									OFFSET -6.585262 -0.139153 -2.765680
									CHANNELS 6 Xposition Yposition Zposition Xrotation Yrotation Zrotation
									JOINT Character1_RightHandPinky2
									{
										OFFSET -1.631413 -0.601036 -0.502742
										CHANNELS 6 Xposition Yposition Zposition Xrotation Yrotation Zrotation
										JOINT Character1_RightHandPinky3
										{
											OFFSET -1.227207 -0.469040 -0.457860
											CHANNELS 6 Xposition Yposition Zposition Xrotation Yrotation Zrotation
											JOINT Character1_RightHandPinky4
											{
												OFFSET -1.696110 -0.584045 -0.687750
												CHANNELS 6 Xposition Yposition Zposition Xrotation Yrotation Zrotation
												End Site
												{
													OFFSET -1.689350 -0.584435 -0.703875
												}
											}
										}
									}
								}
							}
						}
					}
				}
				JOINT Character1_Neck
				{
					OFFSET -0.000001 15.167763 -4.080687
					CHANNELS 6 Xposition Yposition Zposition Xrotation Yrotation Zrotation
					JOINT Character1_Head
					{
						OFFSET -0.000001 7.825302 -0.202157
						CHANNELS 6 Xposition Yposition Zposition Xrotation Yrotation Zrotation
						End Site
						{
							OFFSET -0.242856 15.320236 -2.107584
						}
					}
				}
				JOINT J_R_Mune_00
				{
					OFFSET -2.925001 2.684891 0.061887
					CHANNELS 6 Xposition Yposition Zposition Xrotation Yrotation Zrotation
					JOINT J_R_Mune_01
					{
						OFFSET -7.794388 2.801010 16.635391
						CHANNELS 6 Xposition Yposition Zposition Xrotation Yrotation Zrotation
						JOINT J_R_Mune_02
						{
							OFFSET 6.838630 -2.377007 -14.605499
							CHANNELS 6 Xposition Yposition Zposition Xrotation Yrotation Zrotation
							End Site
							{
								OFFSET -14.795670 -0.834061 -6.791919
							}
						}
					}
				}
				JOINT J_L_Mune_00
				{
					OFFSET 2.925019 2.684776 0.061883
					CHANNELS 6 Xposition Yposition Zposition Xrotation Yrotation Zrotation
					JOINT J_L_Mune_01
					{
						OFFSET 7.794374 2.801254 16.635433
						CHANNELS 6 Xposition Yposition Zposition Xrotation Yrotation Zrotation
						JOINT J_L_Mune_02
						{
							OFFSET -6.838619 -2.376648 -14.605538
							CHANNELS 3 Xrotation Yrotation Zrotation
							End Site
							{
								OFFSET 14.795649 -0.834076 -6.791907
							}
						}
					}
				}
			}
		}
	}
}
MOTION
Frames: 3
Frame Time: 0.033333
4.303289 86.362297 5.770265 -1.392404 7.683531 0.398982 7.276834 -6.057812 0.207883 6.075440 -12.638287 4.119609 -1.823141 -35.110477 -1.568846 4.741761 17.000413 0.092669 -1.031194 -37.817066 -1.726820 -7.927873 0.900962 -5.970440 0.202458 -5.287531 8.122425 0.000006 0.000201 -0.013495 -7.276832 -6.057782 0.207879 1.208629 0.223079 -10.127553 1.823198 -35.109627 -1.587623 3.361272 -0.554430 0.571579 1.031262 -37.817833 -1.710082 -2.960984 -0.749979 9.375623 -0.202447 -5.287759 8.122277 0.000048 -0.000139 -0.222310 -0.000001 2.271324 0.818148 -0.000001 -0.000203 0.000219 -0.000001 9.085943 0.955448 -3.694407 -1.432486 0.048490 -0.000003 8.765567 -0.142867 3.373670 0.071606 1.218576 4.211487 11.612241 -3.873799 0.000136 -0.000309 -2.457660 5.543693 0.000045 -0.000005 22.532041 -4.642419 -69.769897 23.377403 -0.123478 0.033368 -13.703572 -20.183487 -1.979297 16.247707 -0.118857 0.035827 3.689343 -5.480475 14.903165 2.510412 -0.904038 2.091601 -2.573557 -1.715384 7.432106 2.570464 -1.130474 1.584518 4.641445 14.920019 2.293001 1.420843 -0.605856 0.842594 5.373691 23.291287 2.709207 2.153463 -0.757820 1.312962 -0.000511 0.001086 -0.006148 8.043898 0.989304 2.480770 3.066921 13.710543 1.532341 2.427029 0.011871 0.268371 0.423047 -0.045480 -18.415553 1.609949 0.007857 0.037316 1.369386 0.272053 -24.433064 2.130018 0.049439 0.114429 -0.003208 -0.004232 -0.000914 8.038169 1.007440 0.439339 -0.329429 1.965103 -5.254564 2.527049 -0.234459 -0.080973 -1.320197 0.340321 -23.304812 1.931316 -0.179331 -0.117768 -2.195090 0.974705 -33.186328 2.197003 0.041221 -0.161454 -0.003072 -0.003950 0.001101 7.662095 0.616508 -1.366724 -11.465026 -5.992411 -0.178506 2.249855 -0.592639 -0.461934 -0.738310 1.112423 -28.733919 1.521772 -0.400835 -0.248317 -6.831706 4.426392 -25.212414 2.446350 -0.396070 -0.528475 -0.003454 -0.001581 0.000943 6.585145 -0.138978 -2.766157 -6.188468 -18.307897 5.996294 1.631432 -0.600631 -0.502827 -3.494314 1.741871 -11.170079 1.227233 -0.468949 -0.457900 -10.862911 8.683068 -35.889311 1.696021 -0.584235 -0.687826 -0.000645 -0.000180 -0.000244 -4.211487 11.612219 -3.873800 0.000174 0.000216 -0.000139 -5.543740 0.000011 -0.000005 18.379044 -6.251229 69.706151 -23.377590 -0.123558 0.033384 -21.255680 15.839154 2.475889 -16.247574 -0.118851 0.036251 18.814550 -3.706220 -1.482672 -2.510393 -0.904099 2.091563 -7.055655 -0.039519 -13.731487 -2.579422 -1.121673 1.537404 6.117672 -19.520469 -2.673237 -1.429538 -0.616760 0.819536 7.326752 -30.564861 -3.014707 -2.167625 -0.774658 1.279512 0.009681 0.003682 -0.006354 -8.043799 0.988881 2.481294 2.009647 -9.925592 11.498771 -2.426991 0.011958 0.268468 0.065767 -0.000122 28.214081 -1.610003 0.007916 0.037374 0.000532 -0.000331 5.297958 -2.129980 0.049050 0.114507 -0.001021 -0.008861 0.004675 -8.038170 1.006860 0.439861 1.626893 0.054676 4.583821 -2.527003 -0.234054 -0.080874 -1.121653 -0.260999 37.373371 -1.931460 -0.179069 -0.117693 -1.771974 -1.184752 47.582656 -2.196991 0.042815 -0.161371 -0.000941 -0.002851 -0.003753 -7.662138 0.615836 -1.366217 -0.911407 14.832072 6.673564 -2.249906 -0.592042 -0.461823 -0.411918 -0.168541 26.029972 -1.521892 -0.400481 -0.248250 -4.277653 -1.878537 44.397227 -2.446421 -0.395392 -0.528368 0.004770 0.000957 0.007305 -6.585263 -0.139148 -2.765695 -20.673699 14.545322 1.426010 -1.631414 -0.601040 -0.502741 -4.387690 -2.335225 14.215172 -1.227209 -0.469044 -0.457859 -10.411748 -11.507405 39.806783 -1.696105 -0.584059 -0.687747 0.004223 0.003752 -0.005266 -0.000000 15.167769 -4.080687 2.506131 -3.196681 -2.737790 -0.000000 7.825330 -0.202157 2.510365 -3.097501 -2.829123 -2.925003 2.684883 0.061885 -0.000000 -0.000002 0.000001 -7.794389 2.801002 16.635386 0.000001 -0.000001 0.000000 6.838632 -2.376999 -14.605501 -0.000000 0.000002 -0.000000 2.925019 2.684799 0.061881 0.000001 0.000000 0.000000 7.794374 2.801248 16.635433 -0.000002 -0.000002 0.000000 0.000000 0.000002 -0.000000 
3.789342 86.374832 5.760268 -1.436433 6.372763 0.075104 7.276834 -6.057811 0.207883 6.482507 -12.517180 4.634475 -1.823140 -35.110458 -1.568847 4.544625 18.231996 0.230648 -1.031196 -37.817074 -1.726821 -7.759419 0.940387 -6.453171 0.202457 -5.287532 8.122425 -0.750045 0.000271 -0.013527 -7.276831 -6.057787 0.207878 0.497641 0.311371 -9.557654 1.823196 -35.109619 -1.587623 4.107144 0.779464 0.767174 1.031264 -37.817829 -1.710082 -3.175568 -0.733428 8.836470 -0.202448 -5.287760 8.122277 -0.000023 -0.000155 -0.222342 -0.000001 2.271331 0.818148 -0.026641 -0.284477 0.075173 -0.000001 9.085947 0.955445 -3.592440 -2.087752 0.043167 -0.000002 8.765549 -0.142871 3.492661 -0.585737 1.244185 4.211489 11.612237 -3.873801 0.000203 -0.000288 -2.457623 5.543695 0.000017 -0.000007 22.425888 -5.344188 -69.420035 23.377424 -0.123460 0.033364 -13.683195 -20.015603 -1.938752 16.247709 -0.118848 0.035831 4.989817 -4.436324 16.811590 2.510396 -0.904054 2.091604 -2.573594 -1.715408 7.432074 2.570470 -1.130489 1.584513 4.641411 14.920058 2.293074 1.420827 -0.605854 0.842594 5.373671 23.291322 2.709254 2.153476 -0.757811 1.312971 -0.000493 0.001080 -0.006189 8.043880 0.989304 2.480767 3.066888 13.710554 1.532238 2.427011 0.011862 0.268370 0.423027 -0.045453 -18.415387 1.609940 0.007847 0.037315 1.369408 0.271871 -24.433081 2.130036 0.049432 0.114430 -0.003227 -0.004070 -0.001142 8.038164 1.007420 0.439333 -0.329476 1.965127 -5.254625 2.527060 -0.234447 -0.080975 -1.320180 0.340323 -23.304681 1.931308 -0.179338 -0.117769 -2.195091 0.974711 -33.186284 2.196993 0.041219 -0.161455 -0.003061 -0.003975 0.001106 7.662078 0.616516 -1.366731 -11.465062 -5.992388 -0.178480 2.249865 -0.592643 -0.461935 -0.738314 1.112447 -28.733991 1.521774 -0.400861 -0.248312 -6.831716 4.426360 -25.212410 2.446371 -0.396075 -0.528473 -0.003515 -0.001545 0.000913 6.585128 -0.139003 -2.766166 -6.188480 -18.307873 5.996305 1.631436 -0.600642 -0.502822 -3.494296 1.741895 -11.170123 1.227249 -0.468960 -0.457914 -10.862900 8.683018 -35.889212 1.696025 -0.584227 -0.687832 -0.000691 -0.000211 -0.000234 -4.211486 11.612233 -3.873802 0.000222 0.000237 -0.000108 -5.543737 0.000011 -0.000004 18.327202 -6.380432 69.691241 -23.377577 -0.123564 0.033384 -22.724811 14.805111 2.472471 -16.247585 -0.118861 0.036248 19.762958 -3.520364 -2.107496 -2.510387 -0.904098 2.091563 -7.055678 -0.039505 -13.731436 -2.579418 -1.121691 1.537410 6.117690 -19.520491 -2.673191 -1.429547 -0.616755 0.819533 7.326669 -30.564851 -3.014741 -2.167634 -0.774638 1.279510 0.009642 0.003663 -0.006417 -8.043800 0.988879 2.481292 2.009632 -9.925616 11.498787 -2.426987 0.011953 0.268468 0.065800 -0.000128 28.214028 -1.609999 0.007921 0.037372 0.000574 -0.000325 5.298027 -2.129985 0.049036 0.114508 -0.001033 -0.008864 0.004703 -8.038180 1.006859 0.439859 1.626747 0.054820 4.583941 -2.526982 -0.234060 -0.080877 -1.121477 -0.261125 37.373275 -1.931465 -0.179066 -0.117688 -1.772015 -1.184681 47.582547 -2.196990 0.042804 -0.161371 -0.000995 -0.002874 -0.003724 -7.662129 0.615831 -1.366219 -0.911405 14.832000 6.673634 -2.249912 -0.592051 -0.461831 -0.411931 -0.168504 26.029895 -1.521873 -0.400481 -0.248246 -4.277653 -1.878531 44.397097 -2.446434 -0.395393 -0.528367 0.004809 0.000974 0.007315 -6.585265 -0.139151 -2.765684 -20.673712 14.545322 1.425903 -1.631420 -0.601043 -0.502750 -4.387590 -2.335221 14.215213 -1.227195 -0.469038 -0.457855 -10.411778 -11.507437 39.806804 -1.696111 -0.584052 -0.687750 0.004218 0.003775 -0.005301 0.000000 15.167766 -4.080689 2.587518 -1.972426 -2.915751 -0.000001 7.825290 -0.202158 2.531614 -2.312080 -2.928155 -2.925001 2.684883 0.061884 0.000002 -0.000002 0.000000 -7.794384 2.801002 16.635386 0.000002 0.000001 -0.000000 6.838630 -2.377014 -14.605502 0.000001 -0.000002 -0.000000 2.925020 2.684799 0.061879 0.000003 0.000002 -0.000000 7.794377 2.801247 16.635433 -0.000001 0.000002 -0.000000 0.000000 0.000002 0.000000 
3.213578 86.385521 5.749743 -1.499665 4.949953 -0.271466 7.276833 -6.057809 0.207884 6.824294 -12.438090 5.154432 -1.823141 -35.110462 -1.568846 4.549894 19.599243 0.407513 -1.031195 -37.817074 -1.726820 -7.536730 0.990491 -7.034659 0.202458 -5.287533 8.122427 -1.562651 0.000182 -0.013547 -7.276831 -6.057772 0.207879 -0.198617 0.376979 -8.908346 1.823195 -35.109612 -1.587623 4.822348 2.225290 0.955207 1.031265 -37.817829 -1.710081 -3.360794 -0.708021 8.235534 -0.202450 -5.287758 8.122276 0.000041 -0.000195 -0.222305 -0.000002 2.271333 0.818149 -0.072805 -0.569019 0.153827 -0.000001 9.085955 0.955446 -3.477852 -2.829151 0.028178 -0.000002 8.765565 -0.142869 3.627956 -1.330147 1.272090 4.211487 11.612230 -3.873797 0.000191 -0.000317 -2.457611 5.543693 0.000028 -0.000006 21.801002 -6.427269 -68.821505 23.377420 -0.123475 0.033371 -13.621689 -19.558998 -1.825476 16.247721 -0.118842 0.035827 6.353941 -3.254558 18.847574 2.510408 -0.904042 2.091601 -2.573621 -1.715404 7.431974 2.570478 -1.130479 1.584513 4.641444 14.920085 2.292995 1.420837 -0.605856 0.842594 5.373701 23.291319 2.709265 2.153468 -0.757816 1.312967 -0.000523 0.001073 -0.006145 8.043892 0.989300 2.480769 3.066889 13.710571 1.532272 2.427029 0.011865 0.268370 0.423043 -0.045478 -18.415438 1.609933 0.007868 0.037313 1.369424 0.271890 -24.433100 2.130023 0.049430 0.114430 -0.003246 -0.004118 -0.001114 8.038175 1.007426 0.439336 -0.329456 1.965124 -5.254577 2.527048 -0.234438 -0.080974 -1.320185 0.340345 -23.304819 1.931305 -0.179338 -0.117771 -2.195078 0.974679 -33.186202 2.196990 0.041230 -0.161457 -0.003088 -0.004009 0.001111 7.662102 0.616495 -1.366726 -11.465059 -5.992383 -0.178502 2.249853 -0.592635 -0.461932 -0.738336 1.112456 -28.734063 1.521796 -0.400856 -0.248321 -6.831710 4.426378 -25.212443 2.446376 -0.396073 -0.528472 -0.003506 -0.001548 0.000927 6.585138 -0.139000 -2.766159 -6.188484 -18.307890 5.996273 1.631419 -0.600656 -0.502820 -3.494287 1.741895 -11.170079 1.227232 -0.468950 -0.457908 -10.862930 8.683083 -35.889359 1.696014 -0.584232 -0.687832 -0.000693 -0.000213 -0.000234 -4.211487 11.612231 -3.873797 0.000184 0.000222 -0.000091 -5.543741 0.000032 -0.000004 18.260075 -6.530655 69.597592 -23.377583 -0.123549 0.033381 -24.246400 13.739810 2.458944 -16.247583 -0.118859 0.036246 20.792300 -3.331841 -2.787947 -2.510395 -0.904098 2.091561 -7.055661 -0.039516 -13.731413 -2.579425 -1.121675 1.537414 6.117640 -19.520527 -2.673279 -1.429542 -0.616758 0.819531 7.326706 -30.564854 -3.014712 -2.167628 -0.774661 1.279515 0.009669 0.003745 -0.006403 -8.043812 0.988879 2.481293 2.009171 -9.925223 11.498887 -2.426997 0.011936 0.268471 0.066226 -0.000571 28.213818 -1.609995 0.007930 0.037378 0.000564 -0.000282 5.297976 -2.129976 0.049034 0.114511 -0.001050 -0.008908 0.004685 -8.038187 1.006858 0.439860 1.626630 0.054992 4.584000 -2.526992 -0.234062 -0.080876 -1.121340 -0.261280 37.373245 -1.931473 -0.179050 -0.117692 -1.772011 -1.184657 47.582571 -2.196990 0.042808 -0.161371 -0.001032 -0.002892 -0.003742 -7.662151 0.615831 -1.366220 -0.911358 14.831991 6.673665 -2.249891 -0.592035 -0.461830 -0.411885 -0.168532 26.029906 -1.521868 -0.400478 -0.248254 -4.277659 -1.878424 44.397162 -2.446423 -0.395390 -0.528369 0.004797 0.000943 0.007279 -6.585277 -0.139159 -2.765686 -20.673673 14.545327 1.425907 -1.631429 -0.601042 -0.502747 -4.387606 -2.335246 14.215162 -1.227209 -0.469037 -0.457859 -10.411763 -11.507406 39.806766 -1.696119 -0.584046 -0.687749 0.004205 0.003785 -0.005240 -0.000001 15.167753 -4.080684 2.678111 -0.604498 -3.096660 -0.000000 7.825299 -0.202158 2.556363 -1.461180 -3.035915 -2.925001 2.684891 0.061889 0.000001 -0.000000 0.000000 -7.794387 2.801003 16.635389 -0.000000 -0.000001 0.000000 6.838630 -2.377007 -14.605497 -0.000000 0.000000 -0.000000 2.925019 2.684791 0.061882 0.000002 0.000000 0.000000 7.794375 2.801262 16.635433 -0.000000 0.000002 0.000000 0.000001 0.000002 -0.000000 
